# xmcd
#
# Track frame offsets: 
#        150
#        13762
#        28925
#        43754
#        61929
#        79831
#        95928
#        114344
#        134638
#        149683
#        164201
#        175533
#        191005
#        207303
#        219977
#        230034
#
# Disc length: 3227 seconds
#
# Revision: 0
# Processed by: cddbd v1.5.2PL0 Copyright (c) Steve Scherf et al.
# Submitted via: ExactAudioCopy v1.1
#
DISCID=f70c9910
DTITLE=Elle King - Love Stuff
DYEAR=2015
DGENRE=Country Rock
TTITLE0=Where The Devil Don't Go
TTITLE1=Ex's and Oh's
TTITLE2=Under The Influence
TTITLE3=Last Damn Night
TTITLE4=Kocaine Karolina
TTITLE5=Song of Sorrow
TTITLE6=America's Sweetheart
TTITLE7=I Told You I Was Mean
TTITLE8=Ain't Gonna Drown
TTITLE9=Jackson
TTITLE10=Make You Smile
TTITLE11=See You Again
TTITLE12=Playing For Keeps [The Elle King EP]
TTITLE13=Good To Be A Man [The Elle King EP]
TTITLE14=No One Can Save You [The Elle King EP]
TTITLE15=My Neck, My Back (LIVE) (Khia cover) [The Elle King EP]
EXTD=
EXTT0=
EXTT1=
EXTT2=
EXTT3=
EXTT4=
EXTT5=
EXTT6=
EXTT7=
EXTT8=
EXTT9=
EXTT10=
EXTT11=
EXTT12=
EXTT13=
EXTT14=
EXTT15=
PLAYORDER=
